<svg width="16" height="14" viewBox="0 0 16 14" fill="none" xmlns="http://www.w3.org/2000/svg">
<path d="M8.3264 0.114948C8.23176 0.0404553 8.1152 0 7.9952 0C7.8752 0 7.75864 0.0404553 7.664 0.114948L0 6.14853L0.662933 6.99501L1.6 6.2573V12.9231C1.60056 13.2085 1.71313 13.4821 1.91304 13.6839C2.11296 13.8858 2.38394 13.9994 2.66667 14H13.3333C13.6161 13.9994 13.887 13.8858 14.087 13.6839C14.2869 13.4821 14.3994 13.2085 14.4 12.9231V6.26215L15.3371 6.99986L16 6.15338L8.3264 0.114948ZM9.06667 12.9231H6.93333V8.61528H9.06667V12.9231ZM10.1333 12.9231V8.61528C10.1331 8.32974 10.0206 8.05598 9.8206 7.85407C9.62063 7.65217 9.34948 7.53862 9.06667 7.53833H6.93333C6.65052 7.53862 6.37938 7.65217 6.1794 7.85407C5.97942 8.05598 5.86695 8.32974 5.86667 8.61528V12.9231H2.66667V5.41783L8 1.22312L13.3333 5.42321V12.9231H10.1333Z" fill="#8B8B8B"/>
</svg>
