<svg width="21" height="21" viewBox="0 0 21 21" fill="none" xmlns="http://www.w3.org/2000/svg">
<path fill-rule="evenodd" clip-rule="evenodd" d="M10.5 0C4.70107 0 0 4.70107 0 10.5C0 12.3128 0.460046 14.0212 1.26977 15.5107L0.50107 19.6452C0.479439 19.7621 0.486554 19.8824 0.521801 19.9959C0.557048 20.1094 0.61937 20.2126 0.70339 20.2966C0.787411 20.3806 0.890609 20.4429 1.00408 20.4782C1.11756 20.5134 1.23791 20.5205 1.35474 20.4989L5.4893 19.7292C7.02681 20.5656 8.74972 21.0026 10.5 21C16.2989 21 21 16.2989 21 10.5C21 4.70107 16.2989 0 10.5 0ZM15.3837 9.27906C15.0599 9.27906 14.7494 9.4077 14.5204 9.63667C14.2914 9.86563 14.1628 10.1762 14.1628 10.5C14.1628 10.8238 14.2914 11.1344 14.5204 11.3633C14.7494 11.5923 15.0599 11.7209 15.3837 11.7209C15.7075 11.7209 16.0181 11.5923 16.247 11.3633C16.476 11.1344 16.6047 10.8238 16.6047 10.5C16.6047 10.1762 16.476 9.86563 16.247 9.63667C16.0181 9.4077 15.7075 9.27906 15.3837 9.27906ZM9.27907 10.5C9.27907 10.1762 9.4077 9.86563 9.63667 9.63667C9.86564 9.4077 10.1762 9.27906 10.5 9.27906C10.8238 9.27906 11.1344 9.4077 11.3633 9.63667C11.5923 9.86563 11.7209 10.1762 11.7209 10.5C11.7209 10.8238 11.5923 11.1344 11.3633 11.3633C11.1344 11.5923 10.8238 11.7209 10.5 11.7209C10.1762 11.7209 9.86564 11.5923 9.63667 11.3633C9.4077 11.1344 9.27907 10.8238 9.27907 10.5ZM5.61628 9.27906C5.29247 9.27906 4.98192 9.4077 4.75295 9.63667C4.52398 9.86563 4.39535 10.1762 4.39535 10.5C4.39535 10.8238 4.52398 11.1344 4.75295 11.3633C4.98192 11.5923 5.29247 11.7209 5.61628 11.7209C5.94009 11.7209 6.25064 11.5923 6.47961 11.3633C6.70858 11.1344 6.83721 10.8238 6.83721 10.5C6.83721 10.1762 6.70858 9.86563 6.47961 9.63667C6.25064 9.4077 5.94009 9.27906 5.61628 9.27906Z" fill="#00A28A"/>
</svg>
