<svg width="22" height="22" viewBox="0 0 22 22" fill="none" xmlns="http://www.w3.org/2000/svg">
<path d="M9.42796 9.43005C9.01127 9.84689 8.77724 10.4122 8.77734 11.0016C8.77745 11.5909 9.01168 12.1561 9.42851 12.5728C9.84534 12.9895 10.4106 13.2235 11 13.2234C11.5894 13.2233 12.1546 12.9891 12.5713 12.5723" stroke="#8B8B8B" stroke-width="2" stroke-linecap="round" stroke-linejoin="round"/>
<path d="M16.2011 16.1922C14.6425 17.1674 12.8385 17.6788 11 17.6667C7 17.6667 3.66667 15.4444 1 11C2.41333 8.64444 4.01333 6.91333 5.8 5.80667M8.97778 4.53333C9.64338 4.39859 10.3209 4.33158 11 4.33333C15 4.33333 18.3333 6.55556 21 11C20.26 12.2333 19.4678 13.2967 18.6244 14.1889M1 1L21 21" stroke="#8B8B8B" stroke-width="2" stroke-linecap="round" stroke-linejoin="round"/>
</svg>
