<svg width="21" height="20" viewBox="0 0 21 20" fill="none" xmlns="http://www.w3.org/2000/svg">
<path d="M0.699848 10L0.0502379 9.72945C-0.016746 9.90311 -0.016746 10.0969 0.0502379 10.2705L0.699848 10ZM20.3002 10L20.9498 10.2705C21.0167 10.0969 21.0167 9.90311 20.9498 9.72945L20.3002 10ZM10.5 16.5455C7.26035 16.5455 4.98531 14.8698 3.49569 13.1505C2.68172 12.2046 1.99891 11.1451 1.46706 10.0029C1.4281 9.9164 1.39075 9.82911 1.35506 9.74109L1.34946 9.73091L0.699848 10L0.0502379 10.2705V10.2735L0.0544379 10.2793C0.0660951 10.31 0.0782302 10.3406 0.0908385 10.3709L0.20004 10.6225C0.790158 11.8929 1.5489 13.0709 2.45408 14.1222C4.1159 16.0407 6.73954 18 10.5 18V16.5455ZM0.699848 10L1.34946 10.2705L1.35506 10.2589C1.38922 10.1702 1.42658 10.0829 1.46706 9.99709C1.99891 8.85487 2.68172 7.79542 3.49569 6.84945C4.98391 5.13018 7.26035 3.45455 10.5 3.45455V2C6.73954 2 4.1145 3.96073 2.45408 5.87782C1.54888 6.92909 0.790142 8.10712 0.20004 9.37745C0.149164 9.49079 0.100619 9.60524 0.0544379 9.72073L0.0516379 9.72655V9.728H0.0488378L0.699848 10ZM10.5 3.45455C13.7396 3.45455 16.0147 5.13018 17.5043 6.84945C18.3183 7.79544 19.0011 8.85489 19.5329 9.99709C19.572 10.0835 19.6094 10.1708 19.6449 10.2589L19.6505 10.2691L20.3002 10L20.9498 9.72945V9.72655L20.9456 9.72073C20.935 9.68955 20.9228 9.65896 20.9092 9.62909C20.7444 9.24551 20.5622 8.8703 20.3632 8.50473C19.8498 7.56391 19.2406 6.68321 18.5459 5.87782C16.8841 3.96073 14.2605 2 10.5 2V3.45455ZM20.3002 10C20.0833 9.91063 19.8668 9.82045 19.6505 9.72945L19.6463 9.74109L19.6253 9.792L19.5329 10.0029C19.0011 11.1451 18.3183 12.2046 17.5043 13.1505C16.0161 14.8698 13.7396 16.5455 10.5 16.5455V18C14.2605 18 16.8855 16.0393 18.5459 14.1236C19.4512 13.0719 20.21 11.8934 20.8 10.6225C20.8508 10.5092 20.8993 10.3947 20.9456 10.2793L20.9484 10.2735V10.272L20.9498 10.2705L20.3002 10ZM10.5 12.1818C9.94304 12.1818 9.40889 11.9519 9.01505 11.5428C8.62122 11.1336 8.39997 10.5787 8.39997 10H6.99995C6.99995 10.9644 7.3687 11.8893 8.02509 12.5713C8.68147 13.2532 9.57173 13.6364 10.5 13.6364V12.1818ZM12.6 10C12.6 10.5787 12.3788 11.1336 11.9849 11.5428C11.5911 11.9519 11.057 12.1818 10.5 12.1818V13.6364C11.4283 13.6364 12.3185 13.2532 12.9749 12.5713C13.6313 11.8893 14.0001 10.9644 14.0001 10H12.6ZM10.5 7.81818C11.057 7.81818 11.5911 8.04805 11.9849 8.45722C12.3788 8.86639 12.6 9.42135 12.6 10H14.0001C14.0001 9.03558 13.6313 8.11065 12.9749 7.4287C12.3185 6.74675 11.4283 6.36364 10.5 6.36364V7.81818ZM10.5 6.36364C9.57173 6.36364 8.68147 6.74675 8.02509 7.4287C7.3687 8.11065 6.99995 9.03558 6.99995 10H8.39997C8.39997 9.42135 8.62122 8.86639 9.01505 8.45722C9.40889 8.04805 9.94304 7.81818 10.5 7.81818V6.36364Z" fill="#8B8B8B"/>
</svg>
