<svg width="15" height="15" viewBox="0 0 15 15" fill="none" xmlns="http://www.w3.org/2000/svg">
<path d="M14.3569 10.2779L10.7414 8.65767C10.5776 8.58748 10.3989 8.55926 10.2214 8.57556C10.044 8.59187 9.87336 8.65218 9.72508 8.75104C9.71003 8.7607 9.69571 8.77144 9.68222 8.78318L7.79262 10.3904C7.77301 10.4011 7.75119 10.4071 7.72887 10.4079C7.70655 10.4086 7.68436 10.4042 7.66404 10.395C6.44946 9.80873 5.19125 8.55818 4.60271 7.36043C4.59291 7.34041 4.58782 7.31842 4.58782 7.29614C4.58782 7.27386 4.59291 7.25187 4.60271 7.23185L6.21527 5.31852C6.22684 5.30436 6.23757 5.28954 6.24741 5.27413C6.34491 5.12527 6.4038 4.95448 6.41876 4.77717C6.43373 4.59986 6.4043 4.42162 6.33313 4.25853L4.7244 0.649215C4.63304 0.436153 4.47505 0.258467 4.27413 0.142827C4.07321 0.0271874 3.8402 -0.0201693 3.61008 0.00786456C2.60996 0.139346 1.69194 0.630493 1.02756 1.38952C0.363183 2.14855 -0.00208758 3.12353 8.97533e-06 4.13225C8.97533e-06 10.1248 4.87517 15 10.8677 15C11.8764 15.0019 12.8513 14.6366 13.6103 13.9722C14.3693 13.3079 14.8605 12.39 14.9921 11.3899C15.0201 11.1609 14.9734 10.9289 14.8589 10.7285C14.7445 10.5282 14.5684 10.3701 14.3569 10.2779ZM10.8677 14.0816C5.38182 14.0816 0.918407 9.61816 0.918407 4.13225C0.915849 3.34696 1.19929 2.58761 1.71576 1.99606C2.23224 1.40451 2.94643 1.02123 3.72488 0.917847H3.74248C3.77332 0.918422 3.80327 0.928303 3.8284 0.946194C3.85353 0.964085 3.87267 0.98915 3.8833 1.01811L5.49815 4.62359C5.50736 4.64364 5.51213 4.66544 5.51213 4.6875C5.51213 4.70956 5.50736 4.73136 5.49815 4.7514L3.88254 6.66933C3.87048 6.68302 3.85948 6.69761 3.84963 6.71296C3.74853 6.86729 3.689 7.04512 3.6768 7.22921C3.6646 7.41331 3.70014 7.59743 3.77998 7.76376C4.45883 9.15361 5.85939 10.5435 7.26454 11.2223C7.43184 11.3017 7.61686 11.3364 7.80156 11.323C7.98626 11.3096 8.16433 11.2485 8.3184 11.1458C8.33294 11.1358 8.34748 11.1251 8.36126 11.1136L10.2501 9.50642C10.2688 9.4964 10.2894 9.49053 10.3105 9.48921C10.3316 9.48789 10.3528 9.49115 10.3726 9.49877L13.9887 11.119C14.0183 11.1316 14.0431 11.1531 14.0597 11.1806C14.0764 11.208 14.0839 11.24 14.0814 11.272C13.9785 12.0509 13.5956 12.7656 13.0042 13.2826C12.4128 13.7997 11.6533 14.0837 10.8677 14.0816Z" fill="#8B8B8B"/>
</svg>
